# xmcd CD database file
# Copyright (C) 1993-1998 Ti Kan
#
# Track frame offsets:
# 182
# 11057
# 21182
# 34007
# 44507
# 54107
# 65357
# 80807
# 94982
# 112907
# 123182
# 133607
# 144182
# 155957
# 166607
# 176657
# 188057
# 199832
# 208757
# 219932
#
# Disc length: 3053 seconds
# Revision: 0
# Processed by: cddbd v1.4b41PL1 Copyright (c) Steve Scherf et al.
# Submitted via: CDSpectrumPro v3.2.328
#
DISCID=130beb14
DTITLE=VARIOUS ARTIST - GOOD OLE COUNRTY CHRISMAS
DYEAR=1900
DGENRE=
TTITLE0=WHITE CHRISTMAS
TTITLE1=JOY TO THE WORLD
TTITLE2=O LITTLE TOWN OF BETHEHEM
TTITLE3=SILVER BELLS
TTITLE4=SOON IT WILL BE CHRISTMAS DAY
TTITLE5=I HEARD THE BELLS ON CHRISTMAS DAY
TTITLE6=WHAT CHILD THIS IS
TTITLE7=HARK! THE HERALD ANGELS SING
TTITLE8=THE LITTLE DRUMMER BOY
TTITLE9=OH HOLY NIGHT
TTITLE10=IT CAME UPON A MIDNIGHT CLEAR
TTITLE11=SILENT NIGHT
TTITLE12=DO YOU HEAR WHAT I HEAR
TTITLE13=AWAY IN THE MANGER
TTITLE14=THAT CHRISMAS FEELING
TTITLE15=I SAW MOMMY KISSING SANTA CLAUS
TTITLE16=BLUE CHRISTMAS
TTITLE17=THE FIRST NOEL
TTITLE18=GO TELL IT ON THE MOUNTAIN
TTITLE19=WE WITH YOU AA MERRY CHRISTMAS
EXTD=
EXTT0=CHARLIE RICH
EXTT1=TAMMY WYNETTE
EXTT2=GEORGE JONES
EXTT3=TANYA TUCKER
EXTT4=LYNN ANDERSON
EXTT5=JOHNNY CASH
EXTT6=JODY MILLER
EXTT7=MARTY ROBBINS
EXTT8=RAY PRICE
EXTT9=JODY MILLER
EXTT10=CHUCK WAGON GANG
EXTT11=CARL SMITH
EXTT12=THE NEW CHRISTY MINSTRELS
EXTT13=SONNY JAMES
EXTT14=JOHNNY CASH AND TOMMY CASH
EXTT15=LYNN ANDERSON
EXTT16=JIMMY DEAN
EXTT17=ANITA BRYANT
EXTT18=CONNIE SMITH
EXTT19=PATTI PAGE
PLAYORDER=
